<svg width="1200" height="360" viewBox="0 0 1200 360" fill="none" xmlns="http://www.w3.org/2000/svg" xmlns:xlink="http://www.w3.org/1999/xlink" role="img" aria-labelledby="title desc">
  <title id="title">Research command console</title>
  <desc id="desc">An animated dashboard showing radar, charts, and terminal panels for the KING-OF-ECO GitHub profile.</desc>
  <defs>
    <linearGradient id="deckBg" x1="40" y1="18" x2="1160" y2="342" gradientUnits="userSpaceOnUse">
      <stop offset="0" stop-color="#060708"/>
      <stop offset="0.5" stop-color="#0A0E10"/>
      <stop offset="1" stop-color="#111A17"/>
    </linearGradient>
    <linearGradient id="goldEdge" x1="60" y1="0" x2="1140" y2="360" gradientUnits="userSpaceOnUse">
      <stop offset="0" stop-color="#F8E9A4"/>
      <stop offset="0.48" stop-color="#C9A227"/>
      <stop offset="1" stop-color="#8A6514"/>
    </linearGradient>
    <linearGradient id="greenEdge" x1="0" y1="0" x2="1200" y2="0" gradientUnits="userSpaceOnUse">
      <stop offset="0" stop-color="#1FE69A"/>
      <stop offset="1" stop-color="#A6FF69"/>
    </linearGradient>
    <linearGradient id="panelFill" x1="0" y1="0" x2="1" y2="1">
      <stop offset="0" stop-color="#101517" stop-opacity="0.9"/>
      <stop offset="1" stop-color="#0A0D0E" stop-opacity="0.7"/>
    </linearGradient>
    <filter id="greenGlow" x="-30%" y="-30%" width="160%" height="160%">
      <feGaussianBlur stdDeviation="6" result="blur"/>
      <feMerge>
        <feMergeNode in="blur"/>
        <feMergeNode in="SourceGraphic"/>
      </feMerge>
    </filter>
    <filter id="goldGlow" x="-30%" y="-30%" width="160%" height="160%">
      <feGaussianBlur stdDeviation="5" result="blur"/>
      <feMerge>
        <feMergeNode in="blur"/>
        <feMergeNode in="SourceGraphic"/>
      </feMerge>
    </filter>
  </defs>

  <rect x="8" y="8" width="1184" height="344" rx="26" fill="url(#deckBg)"/>
  <rect x="8.5" y="8.5" width="1183" height="343" rx="25.5" stroke="url(#goldEdge)" stroke-opacity="0.18"/>

  <circle cx="1110" cy="70" r="110" fill="#1FE69A" fill-opacity="0.07">
    <animate attributeName="r" values="102;116;102" dur="6s" repeatCount="indefinite"/>
  </circle>
  <circle cx="1020" cy="286" r="132" fill="#C9A227" fill-opacity="0.05">
    <animate attributeName="fill-opacity" values="0.03;0.08;0.03" dur="6.4s" repeatCount="indefinite"/>
  </circle>

  <text x="58" y="42" fill="#F3EEE1" font-size="18" font-family="'Trebuchet MS', Arial, sans-serif" letter-spacing="5">RESEARCH COMMAND CONSOLE</text>
  <rect x="1014" y="24" width="120" height="26" rx="13" fill="#0E1513" stroke="#1FE69A" stroke-opacity="0.28"/>
  <text x="1074" y="41" fill="#A6FF69" font-size="13" font-family="'Trebuchet MS', Arial, sans-serif" text-anchor="middle" letter-spacing="3">LOCKED IN</text>

  <g opacity="0.22">
    <path d="M58 58H1142" stroke="#819089" stroke-width="1"/>
    <path d="M58 326H1142" stroke="#819089" stroke-width="1"/>
  </g>

  <g>
    <rect x="42" y="72" width="326" height="232" rx="20" fill="url(#panelFill)" stroke="#C9A227" stroke-opacity="0.18"/>
    <text x="68" y="103" fill="#D8B34B" font-size="16" font-family="'Trebuchet MS', Arial, sans-serif" letter-spacing="3">INFERENCE RADAR</text>

    <g transform="translate(200 194)">
      <circle r="82" stroke="#173028" stroke-width="1.5"/>
      <circle r="58" stroke="#173028" stroke-width="1.5"/>
      <circle r="34" stroke="#173028" stroke-width="1.5"/>
      <circle r="6" fill="#A6FF69" filter="url(#greenGlow)">
        <animate attributeName="r" values="5;8;5" dur="1.6s" repeatCount="indefinite"/>
      </circle>
      <path d="M-82 0H82M0 -82V82" stroke="#173028" stroke-width="1.5"/>
      <path d="M-58 -58L58 58M58 -58L-58 58" stroke="#10221D" stroke-width="1"/>
      <circle r="82" stroke="#1FE69A" stroke-opacity="0.18" stroke-width="1">
        <animate attributeName="stroke-opacity" values="0.08;0.4;0.08" dur="4s" repeatCount="indefinite"/>
      </circle>
      <g>
        <animateTransform attributeName="transform" type="rotate" values="0;360" dur="8s" repeatCount="indefinite"/>
        <path d="M0 0L66 -22" stroke="#1FE69A" stroke-width="2.5" stroke-linecap="round" filter="url(#greenGlow)"/>
        <circle cx="66" cy="-22" r="5" fill="#A6FF69" filter="url(#greenGlow)"/>
      </g>
      <circle cx="-48" cy="-36" r="3.5" fill="#C9A227">
        <animate attributeName="opacity" values="0.2;1;0.2" dur="2.8s" repeatCount="indefinite"/>
      </circle>
      <circle cx="54" cy="40" r="4" fill="#1FE69A">
        <animate attributeName="opacity" values="1;0.2;1" dur="3.4s" repeatCount="indefinite"/>
      </circle>
    </g>

    <text x="68" y="260" fill="#DDE6E1" font-size="14" font-family="'Trebuchet MS', Arial, sans-serif" letter-spacing="2">QUESTION DENSITY</text>
    <text x="290" y="260" fill="#A6FF69" font-size="14" font-family="'Trebuchet MS', Arial, sans-serif" text-anchor="end" letter-spacing="2">HIGH</text>
    <text x="68" y="284" fill="#DDE6E1" font-size="14" font-family="'Trebuchet MS', Arial, sans-serif" letter-spacing="2">NOISE TOLERANCE</text>
    <text x="290" y="284" fill="#F8E9A4" font-size="14" font-family="'Trebuchet MS', Arial, sans-serif" text-anchor="end" letter-spacing="2">LOW</text>
  </g>

  <g>
    <rect x="390" y="72" width="386" height="232" rx="20" fill="url(#panelFill)" stroke="#1FE69A" stroke-opacity="0.18"/>
    <text x="416" y="103" fill="#A6FF69" font-size="16" font-family="'Trebuchet MS', Arial, sans-serif" letter-spacing="3">SIGNAL CURVE</text>

    <g opacity="0.2">
      <path d="M416 126H750" stroke="#7F8E88" stroke-width="1"/>
      <path d="M416 158H750" stroke="#7F8E88" stroke-width="1"/>
      <path d="M416 190H750" stroke="#7F8E88" stroke-width="1"/>
      <path d="M416 222H750" stroke="#7F8E88" stroke-width="1"/>
      <path d="M416 254H750" stroke="#7F8E88" stroke-width="1"/>
      <path d="M456 122V270" stroke="#7F8E88" stroke-width="1"/>
      <path d="M516 122V270" stroke="#7F8E88" stroke-width="1"/>
      <path d="M576 122V270" stroke="#7F8E88" stroke-width="1"/>
      <path d="M636 122V270" stroke="#7F8E88" stroke-width="1"/>
      <path d="M696 122V270" stroke="#7F8E88" stroke-width="1"/>
    </g>

    <rect x="436" y="224" width="22" height="46" rx="8" fill="#1FE69A" fill-opacity="0.55">
      <animate attributeName="y" values="224;206;230;224" dur="3.9s" repeatCount="indefinite"/>
      <animate attributeName="height" values="46;64;40;46" dur="3.9s" repeatCount="indefinite"/>
    </rect>
    <rect x="492" y="202" width="22" height="68" rx="8" fill="#1FE69A" fill-opacity="0.55">
      <animate attributeName="y" values="202;180;214;202" dur="4.5s" repeatCount="indefinite"/>
      <animate attributeName="height" values="68;90;56;68" dur="4.5s" repeatCount="indefinite"/>
    </rect>
    <rect x="548" y="186" width="22" height="84" rx="8" fill="#1FE69A" fill-opacity="0.55">
      <animate attributeName="y" values="186;172;194;186" dur="3.7s" repeatCount="indefinite"/>
      <animate attributeName="height" values="84;98;76;84" dur="3.7s" repeatCount="indefinite"/>
    </rect>
    <rect x="604" y="154" width="22" height="116" rx="8" fill="#1FE69A" fill-opacity="0.55">
      <animate attributeName="y" values="154;140;170;154" dur="4.6s" repeatCount="indefinite"/>
      <animate attributeName="height" values="116;130;100;116" dur="4.6s" repeatCount="indefinite"/>
    </rect>
    <rect x="660" y="172" width="22" height="98" rx="8" fill="#1FE69A" fill-opacity="0.55">
      <animate attributeName="y" values="172;154;186;172" dur="4.1s" repeatCount="indefinite"/>
      <animate attributeName="height" values="98;116;82;98" dur="4.1s" repeatCount="indefinite"/>
    </rect>

    <path id="deckPath" d="M428 240C470 228 492 174 540 174C578 174 588 232 632 232C676 232 700 144 746 144" fill="none" opacity="0"/>
    <path d="M428 240C470 228 492 174 540 174C578 174 588 232 632 232C676 232 700 144 746 144" stroke="url(#greenEdge)" stroke-width="4.5" stroke-linecap="round" filter="url(#greenGlow)"/>
    <path d="M428 240C470 228 492 174 540 174C578 174 588 232 632 232C676 232 700 144 746 144" stroke="#D9FFF1" stroke-opacity="0.3" stroke-width="1.5" stroke-linecap="round"/>
    <circle r="5" fill="#A6FF69" filter="url(#greenGlow)">
      <animateMotion dur="5s" repeatCount="indefinite" rotate="auto">
        <mpath xlink:href="#deckPath"/>
      </animateMotion>
    </circle>

    <text x="418" y="292" fill="#AAB7B2" font-size="13" font-family="'Trebuchet MS', Arial, sans-serif" letter-spacing="2">ALPHA</text>
    <text x="536" y="292" fill="#AAB7B2" font-size="13" font-family="'Trebuchet MS', Arial, sans-serif" letter-spacing="2">BETA</text>
    <text x="654" y="292" fill="#AAB7B2" font-size="13" font-family="'Trebuchet MS', Arial, sans-serif" letter-spacing="2">GAMMA</text>
  </g>

  <g>
    <rect x="798" y="72" width="360" height="232" rx="20" fill="url(#panelFill)" stroke="#C9A227" stroke-opacity="0.18"/>
    <text x="824" y="103" fill="#D8B34B" font-size="16" font-family="'Trebuchet MS', Arial, sans-serif" letter-spacing="3">TERMINAL</text>

    <rect x="824" y="122" width="132" height="34" rx="10" fill="#141A18" stroke="#1FE69A" stroke-opacity="0.28"/>
    <text x="890" y="144" fill="#EEF4F1" font-size="17" font-family="'Trebuchet MS', Arial, sans-serif" text-anchor="middle" letter-spacing="4">NJUPT</text>

    <text x="824" y="186" fill="#CFD8D3" font-size="15" font-family="'Trebuchet MS', Arial, sans-serif" letter-spacing="2">MODE</text>
    <text x="1116" y="186" fill="#A6FF69" font-size="15" font-family="'Trebuchet MS', Arial, sans-serif" text-anchor="end" letter-spacing="2">POLICY EVAL</text>
    <text x="824" y="212" fill="#CFD8D3" font-size="15" font-family="'Trebuchet MS', Arial, sans-serif" letter-spacing="2">METHOD</text>
    <text x="1116" y="212" fill="#A6FF69" font-size="15" font-family="'Trebuchet MS', Arial, sans-serif" text-anchor="end" letter-spacing="2">CAUSAL INFERENCE</text>
    <text x="824" y="238" fill="#CFD8D3" font-size="15" font-family="'Trebuchet MS', Arial, sans-serif" letter-spacing="2">OUTPUT</text>
    <text x="1116" y="238" fill="#F8E9A4" font-size="15" font-family="'Trebuchet MS', Arial, sans-serif" text-anchor="end" letter-spacing="2">RESEARCH GRADE</text>

    <rect x="824" y="260" width="306" height="4" rx="2" fill="#103228" opacity="0.6"/>
    <rect x="824" y="260" width="122" height="4" rx="2" fill="#1FE69A" filter="url(#greenGlow)">
      <animate attributeName="width" values="84;202;122;240;122" dur="5s" repeatCount="indefinite"/>
    </rect>
    <rect x="816" y="164" width="322" height="2" rx="1" fill="#A6FF69" opacity="0">
      <animate attributeName="y" values="164;248;164" dur="4.8s" repeatCount="indefinite"/>
      <animate attributeName="opacity" values="0;0.75;0" dur="4.8s" repeatCount="indefinite"/>
    </rect>

    <g opacity="0.48">
      <rect x="978" y="122" width="140" height="16" rx="8" fill="#151A19">
        <animate attributeName="opacity" values="0.22;0.58;0.22" dur="2.4s" repeatCount="indefinite"/>
      </rect>
      <rect x="978" y="146" width="112" height="10" rx="5" fill="#151A19">
        <animate attributeName="opacity" values="0.58;0.22;0.58" dur="2.1s" repeatCount="indefinite"/>
      </rect>
    </g>
  </g>

  <g>
    <rect x="58" y="318" width="208" height="22" rx="11" fill="#0E1513" stroke="#1FE69A" stroke-opacity="0.22"/>
    <rect x="286" y="318" width="208" height="22" rx="11" fill="#0F1114" stroke="#C9A227" stroke-opacity="0.22"/>
    <rect x="514" y="318" width="208" height="22" rx="11" fill="#0E1513" stroke="#1FE69A" stroke-opacity="0.22"/>
    <rect x="742" y="318" width="208" height="22" rx="11" fill="#0F1114" stroke="#C9A227" stroke-opacity="0.22"/>
    <rect x="970" y="318" width="172" height="22" rx="11" fill="#0E1513" stroke="#1FE69A" stroke-opacity="0.22"/>

    <text x="162" y="333" fill="#E8EFEB" font-size="12" font-family="'Trebuchet MS', Arial, sans-serif" text-anchor="middle" letter-spacing="2">ECONOMICS</text>
    <text x="390" y="333" fill="#E8EFEB" font-size="12" font-family="'Trebuchet MS', Arial, sans-serif" text-anchor="middle" letter-spacing="2">IDENTIFICATION</text>
    <text x="618" y="333" fill="#E8EFEB" font-size="12" font-family="'Trebuchet MS', Arial, sans-serif" text-anchor="middle" letter-spacing="2">DATA SYSTEMS</text>
    <text x="846" y="333" fill="#E8EFEB" font-size="12" font-family="'Trebuchet MS', Arial, sans-serif" text-anchor="middle" letter-spacing="2">AI LEVERAGE</text>
    <text x="1056" y="333" fill="#E8EFEB" font-size="12" font-family="'Trebuchet MS', Arial, sans-serif" text-anchor="middle" letter-spacing="2">NJUPT</text>
  </g>
</svg>
